<svg width="362" height="281" viewBox="0 0 362 281" fill="none" xmlns="http://www.w3.org/2000/svg">
<g filter="url(#filter0_d_424_136)">
<path d="M29.3875 267.505C48.3415 280.843 87.01 261.948 103.975 250.833V227.5L62.7325 214.855C55.7125 226.789 32.605 223.045 25 220.12C33.775 243.812 53.08 240.303 56.59 244.69C59.398 248.2 39.625 261.363 29.3875 267.505Z" fill="#D9D9D9" fill-opacity="0.85098"/>
<path d="M356.695 209.59C344.761 236.266 301.413 243.52 281.23 243.813L278.598 209.59L308.432 194.673C330.194 196.076 340.9 184.143 343.533 178C342.129 194.146 333.587 207.543 329.492 212.223L356.695 209.59Z" fill="#D9D9D9" fill-opacity="0.85098"/>
<path d="M75.0175 243.813L103.975 250.833M103.975 250.833C87.01 261.948 48.3415 280.843 29.3875 267.505C39.625 261.363 59.398 248.2 56.59 244.69C53.08 240.303 33.775 243.813 25 220.12C32.605 223.045 55.7125 226.789 62.7325 214.855L103.975 227.5V250.833ZM311.943 209.59L281.23 243.813M281.23 243.813C301.413 243.52 344.761 236.266 356.695 209.59L329.492 212.223C333.587 207.543 342.129 194.146 343.533 178C340.9 184.143 330.194 196.077 308.432 194.673L278.598 209.59L281.23 243.813Z" stroke="black"/>
</g>
<g filter="url(#filter1_d_424_136)">
<path d="M47 178.334C153.652 129.913 267.439 144.708 311 158.158V211.667C225.937 202.054 159.334 213.527 117.166 227.052L105.764 230.965C92.1117 235.976 81.7826 240.765 75.0664 245L47 178.334Z" fill="#D9D9D9"/>
<path d="M117.166 227.052L105.764 230.965M105.764 230.965C92.1117 235.976 81.7826 240.765 75.0664 245L47 178.334C153.652 129.913 267.439 144.708 311 158.158V211.667C217.817 201.136 146.787 215.909 105.764 230.965Z" stroke="black"/>
</g>
<g filter="url(#filter2_d_424_136)">
<path d="M285.819 129.762C338.085 125.572 352.795 106.556 353 97.1093C346.59 104.749 321.386 111.286 309.585 113.6C291.729 118.465 249.45 111.852 230.348 107.891L222.028 101.73C221.288 98.0334 218.021 90.5377 216.48 87.2519L220.795 80.475L213.091 76.7785L206.619 66.6131C200.969 59.7334 190.348 44.742 193.06 39.8134C195.771 34.8847 161.523 12.911 144.06 2.54021L140.979 5.00455L128.96 1C127.727 5.68225 117.969 17.737 113.243 23.1791V39.8134L103.074 69.0774C95.3695 78.0106 86.4325 69.6935 87.6652 68.4613C88.6513 67.4756 82.1181 57.5771 78.7282 52.7511C68.8668 49.7939 65.3742 51.7243 64.8606 53.0592C71.7636 56.2628 74.3111 59.1174 74.722 60.1442C77.8037 59.5281 75.9547 70.0015 74.722 72.4659C73.7359 74.4373 78.4201 77.8053 80.8854 79.2428C101.841 88.4841 103.074 81.7071 112.319 71.8498C121.564 61.9924 124.337 47.8225 128.96 39.8134C132.658 33.4061 135.843 31.3935 136.972 31.1882L133.891 50.5948L136.972 49.6707L135.74 52.7511L139.746 54.2914L136.972 61.0683L139.746 62.6085L134.815 110.971L113.552 119.596C107.388 125.018 89.6169 133.561 81.5018 137.155C73.1812 138.387 20.1758 189.214 18.0187 191.062C16.3236 192.514 9.59532 198.969 6 204L34.0435 194.451C46.8634 186.565 89.5142 168.78 109.237 160.874L156.387 145.78L206.311 137.771L211.242 135.615L214.323 137.771L251.612 135.615L255.002 129.762L258.392 133.15L263.014 128.838L269.794 135.615L285.819 129.762Z" fill="#0D970A"/>
<path d="M310.164 113.436C309.974 113.492 309.781 113.546 309.585 113.6M309.585 113.6C291.729 118.465 249.45 111.852 230.348 107.891L222.028 101.73C221.288 98.0334 218.021 90.5377 216.48 87.2519L220.795 80.475L213.091 76.7785L206.619 66.6131C200.969 59.7334 190.348 44.742 193.06 39.8134C195.771 34.8847 161.523 12.911 144.06 2.54021L140.979 5.00455L128.96 1C127.727 5.68225 117.969 17.737 113.243 23.1791V39.8134L103.074 69.0774C95.3695 78.0106 86.4325 69.6935 87.6652 68.4613C88.6513 67.4756 82.1181 57.5771 78.7282 52.7511C68.8668 49.7939 65.3742 51.7243 64.8606 53.0592C71.7636 56.2628 74.3111 59.1174 74.722 60.1442C77.8037 59.5281 75.9547 70.0015 74.722 72.4659C73.7359 74.4373 78.4201 77.8053 80.8854 79.2428C101.841 88.4841 103.074 81.7071 112.319 71.8498C121.564 61.9924 124.337 47.8225 128.96 39.8134C132.658 33.4061 135.843 31.3935 136.972 31.1882L133.891 50.5948L136.972 49.6707L135.74 52.7511L139.746 54.2914L136.972 61.0683L139.746 62.6085L134.815 110.971L113.552 119.596C107.388 125.018 89.6169 133.561 81.5018 137.155C73.1812 138.387 20.1758 189.214 18.0187 191.062C16.3236 192.514 9.59532 198.969 6 204L34.0435 194.451C46.8634 186.565 89.5142 168.78 109.237 160.874L156.387 145.78L206.311 137.771L211.242 135.615L214.323 137.771L251.612 135.615L255.002 129.762L258.392 133.15L263.014 128.838L269.794 135.615L285.819 129.762C338.085 125.572 352.795 106.556 353 97.1093C346.59 104.749 321.386 111.286 309.585 113.6Z" stroke="black"/>
</g>
<g filter="url(#filter3_d_424_136)">
<path d="M76.8572 203.664L77.4713 207.167C77.7214 208.598 77.8067 209.459 77.7273 209.75C77.6495 210.045 77.2399 210.396 76.4986 210.803C76.6432 210.097 76.6688 209.076 76.5752 207.741C76.155 208.816 75.5432 209.542 74.7397 209.917C73.9257 210.297 73.1242 210.339 72.3352 210.044C71.5481 209.743 70.9587 209.174 70.5669 208.335C69.9388 206.99 69.9526 205.528 70.6082 203.95C71.2656 202.367 72.3306 201.232 73.8029 200.544C74.7833 200.086 75.3652 200.054 75.5487 200.447C75.6264 200.613 75.5863 200.97 75.4283 201.518C75.4111 201.574 75.3888 201.655 75.3615 201.763C74.8393 201.291 74.1943 201.234 73.4262 201.593C72.3963 202.074 71.6943 202.902 71.3204 204.077C70.9465 205.252 71.0207 206.398 71.543 207.517C71.8934 208.267 72.3647 208.778 72.9569 209.049C73.5526 209.318 74.1672 209.305 74.8007 209.009C75.3705 208.743 75.7678 208.296 75.9925 207.67C76.2172 207.043 76.2318 206.336 76.0362 205.548L75.972 205.3C74.8784 205.81 74.0727 206.37 73.5548 206.978C73.4778 206.462 73.5057 206.102 73.6388 205.898C73.7702 205.69 74.159 205.396 74.8052 205.017L75.4441 204.654C75.948 204.367 76.4191 204.037 76.8572 203.664Z" fill="black"/>
</g>
<g filter="url(#filter4_d_424_136)">
<path d="M86.9367 204.45C86.7399 204.668 86.5677 204.808 86.42 204.869C86.0525 205.023 85.8008 204.938 85.665 204.614C85.5956 204.448 85.4877 204.008 85.3414 203.295L85.0482 201.836C84.879 200.966 84.7137 200.339 84.5523 199.953C84.4648 199.744 84.3321 199.595 84.1544 199.504C84.4784 199.216 84.7593 199.022 84.9971 198.922C85.2494 198.817 85.4426 198.924 85.5769 199.245C85.6599 199.443 85.7878 200.001 85.9606 200.92L86.3111 202.622C86.4384 201.014 86.6931 199.701 87.075 198.681C87.4591 197.656 87.9321 197.026 88.4942 196.791C88.6924 196.708 88.8877 196.694 89.0801 196.749C89.271 196.8 89.4004 196.907 89.4683 197.069C89.5739 197.322 89.4403 197.771 89.0676 198.419C88.8115 198.191 88.5574 198.13 88.3052 198.236C87.8476 198.428 87.4675 199.158 87.165 200.428C86.9789 201.218 86.8587 202.003 86.8044 202.784C86.7487 203.561 86.7782 204.086 86.8928 204.36L86.9367 204.45Z" fill="black"/>
</g>
<g filter="url(#filter5_d_424_136)">
<path d="M97.6814 197.57C98.0821 198.642 98.7361 199.009 99.6436 198.67C100.43 198.376 101.157 197.677 101.825 196.572C102.492 195.468 102.977 194.161 103.28 192.651L103.843 192.734C103.626 194.341 103.108 195.799 102.287 197.106C101.47 198.413 100.547 199.258 99.5191 199.642C98.8604 199.888 98.2597 199.871 97.7169 199.59C97.1777 199.308 96.7707 198.799 96.4958 198.064C96.0992 197.002 96.1058 195.966 96.5156 194.954C96.9291 193.94 97.6244 193.251 98.6013 192.885C99.0733 192.709 99.4947 192.687 99.8653 192.82C100.24 192.951 100.501 193.216 100.65 193.615C100.895 194.27 100.717 194.997 100.115 195.798C99.5171 196.597 98.7059 197.187 97.6814 197.57ZM97.5283 197.027C98.278 196.701 98.8509 196.237 99.2471 195.634C99.6469 195.03 99.749 194.467 99.5534 193.943C99.3784 193.475 99.0823 193.319 98.6651 193.475C98.1675 193.661 97.8081 194.099 97.587 194.791C97.3659 195.482 97.3463 196.228 97.5283 197.027Z" fill="black"/>
</g>
<g filter="url(#filter6_d_424_136)">
<path d="M110.752 192.919C111.109 194.007 111.748 194.399 112.668 194.097C113.466 193.835 114.221 193.166 114.932 192.089C115.644 191.013 116.181 189.726 116.545 188.23L117.104 188.336C116.823 189.933 116.245 191.368 115.373 192.642C114.503 193.914 113.547 194.721 112.505 195.064C111.837 195.283 111.237 195.241 110.706 194.939C110.179 194.635 109.793 194.11 109.548 193.364C109.194 192.288 109.243 191.252 109.693 190.258C110.147 189.261 110.87 188.601 111.861 188.275C112.339 188.118 112.761 188.113 113.126 188.261C113.495 188.407 113.746 188.682 113.878 189.087C114.097 189.751 113.889 190.471 113.255 191.246C112.626 192.02 111.791 192.578 110.752 192.919ZM110.621 192.37C111.383 192.075 111.975 191.634 112.395 191.048C112.819 190.46 112.943 189.901 112.769 189.371C112.613 188.896 112.324 188.728 111.9 188.867C111.396 189.032 111.019 189.456 110.77 190.138C110.521 190.82 110.472 191.564 110.621 192.37Z" fill="black"/>
</g>
<g filter="url(#filter7_d_424_136)">
<path d="M127.158 188.017C127.312 188.172 127.409 188.319 127.449 188.458C127.555 188.825 127.361 189.322 126.866 189.948C126.374 190.569 125.873 190.953 125.362 191.1C124.911 191.23 124.486 191.135 124.085 190.815C123.688 190.494 123.398 190.017 123.216 189.382C123.013 188.676 122.91 187.619 122.907 186.209L122.894 185.189L121.942 185.462C121.544 185.577 121.243 185.724 121.039 185.905C121.142 185.444 121.251 185.143 121.364 185.001C121.478 184.858 121.705 184.738 122.047 184.64L122.897 184.395L122.898 183.974C122.905 183.346 122.997 182.891 123.176 182.608C123.354 182.321 123.683 182.109 124.163 181.97C124.22 181.954 124.311 181.932 124.437 181.904C124.252 182.364 124.129 183.082 124.069 184.058L127.042 183.203C127.564 183.053 127.942 182.871 128.178 182.657C128.195 183.071 128.142 183.361 128.019 183.526C127.898 183.687 127.626 183.828 127.202 183.95L124.037 184.86C124.035 184.995 124.033 185.095 124.032 185.16C124.022 186.838 124.131 188.07 124.358 188.859C124.608 189.73 125.047 190.075 125.674 189.895C125.997 189.802 126.308 189.564 126.609 189.181C126.913 188.797 127.096 188.409 127.158 188.017Z" fill="black"/>
</g>
<g filter="url(#filter8_d_424_136)">
<path d="M140.346 182.051C139.866 183.767 139.295 185.158 138.633 186.227C137.969 187.291 137.289 187.911 136.592 188.086C136.168 188.192 135.79 188.14 135.459 187.929C135.132 187.717 134.912 187.385 134.799 186.935C134.756 186.764 134.726 186.484 134.709 186.093L134.677 185.437C134.636 184.489 134.57 183.833 134.479 183.469C134.425 183.253 134.316 183.093 134.153 182.989C134.617 182.751 134.912 182.617 135.037 182.586C135.317 182.515 135.507 182.677 135.606 183.071C135.679 183.363 135.729 183.796 135.756 184.369L135.812 185.533C135.837 186.094 135.869 186.455 135.909 186.614C136.026 187.084 136.284 187.269 136.682 187.169C137.156 187.05 137.687 186.494 138.275 185.501C138.863 184.503 139.372 183.3 139.804 181.891L140.346 182.051ZM134.569 180.456L134.65 180.442C134.901 180.367 135.233 180.148 135.646 179.787C136.061 179.421 136.372 179.077 136.577 178.756C136.542 179.321 136.356 179.833 136.02 180.291C135.511 180.991 135.142 181.369 134.915 181.426C134.764 181.464 134.665 181.391 134.618 181.205C134.551 180.94 134.535 180.69 134.569 180.456Z" fill="black"/>
</g>
<g filter="url(#filter9_d_424_136)">
<path d="M147.581 183.222C148.34 180.067 149.261 178.377 150.343 178.152C151.188 177.976 151.786 178.729 152.137 180.412L152.293 181.103C152.46 181.906 152.616 182.454 152.761 182.747C152.909 183.036 153.092 183.157 153.31 183.112C153.639 183.043 153.957 182.704 154.265 182.093C154.576 181.481 155.039 180.286 155.654 178.506L156.194 178.686C155.684 180.449 155.176 181.784 154.671 182.691C154.165 183.598 153.649 184.107 153.121 184.217C152.635 184.318 152.244 184.154 151.947 183.725C151.654 183.295 151.387 182.501 151.146 181.342L151.037 180.85C150.906 180.223 150.775 179.792 150.642 179.556C150.508 179.317 150.342 179.218 150.143 179.259C149.638 179.364 149.036 180.541 148.335 182.79C148.162 183.341 148.051 183.695 148 183.853C147.812 184.427 147.742 184.829 147.79 185.058C147.809 185.15 147.852 185.233 147.92 185.306C147.717 185.444 147.539 185.529 147.386 185.561C147 185.642 146.762 185.468 146.673 185.039C146.647 184.917 146.582 184.356 146.478 183.356L146.345 182.085C146.292 181.546 146.236 181.13 146.175 180.84C146.091 180.434 145.932 180.134 145.7 179.939C145.775 179.896 145.899 179.822 146.073 179.718C146.292 179.584 146.473 179.503 146.615 179.473C146.913 179.411 147.107 179.598 147.198 180.034C147.246 180.264 147.299 180.663 147.358 181.234C147.372 181.358 147.385 181.478 147.397 181.591L147.581 183.222Z" fill="black"/>
</g>
<g filter="url(#filter10_d_424_136)">
<path d="M165.876 178.392C165.627 179.223 165.194 179.988 164.579 180.685C163.963 181.382 163.374 181.776 162.811 181.867C162.391 181.935 162.025 181.848 161.713 181.605C161.4 181.363 161.207 181.014 161.134 180.559C160.962 179.495 161.207 178.446 161.871 177.413C162.535 176.376 163.344 175.78 164.301 175.625C164.794 175.545 165.349 175.6 165.965 175.789C165.983 175.407 166.057 175.155 166.188 175.035C166.319 174.915 166.678 174.776 167.266 174.617C167.063 175.271 167.009 176.76 167.104 179.083L167.124 179.685C168.617 178.423 169.729 177.2 170.46 176.018L170.995 176.246C170.326 177.49 169.069 178.932 167.226 180.571C167.238 180.723 167.249 180.837 167.257 180.91C167.355 181.888 167.369 182.618 167.296 183.1C167.224 183.583 167.03 184.061 166.715 184.536C166.098 185.463 165.253 186.013 164.181 186.186C163.606 186.279 163.117 186.218 162.714 186.002C162.312 185.79 162.076 185.468 162.006 185.036C161.938 184.616 162.033 184.223 162.29 183.856C162.551 183.49 163.073 183.01 163.856 182.416C164.375 182.028 165.103 181.455 166.041 180.698L165.876 178.392ZM165.928 176.84C165.34 176.389 164.746 176.212 164.144 176.309C163.573 176.402 163.094 176.847 162.704 177.646C162.315 178.441 162.185 179.242 162.315 180.048C162.408 180.618 162.664 180.87 163.084 180.802C163.493 180.736 163.98 180.309 164.545 179.521C165.113 178.729 165.574 177.835 165.928 176.84ZM166.108 181.476C165.906 181.647 165.495 181.979 164.874 182.471C163.661 183.439 163.101 184.21 163.194 184.785C163.235 185.039 163.377 185.232 163.62 185.363C163.863 185.494 164.152 185.532 164.487 185.478C165.961 185.239 166.501 183.906 166.108 181.476Z" fill="black"/>
</g>
<g filter="url(#filter11_d_424_136)">
<path d="M179.593 177.986C179.761 178.265 179.861 178.538 179.894 178.805C179.966 179.398 179.781 179.944 179.338 180.443C178.896 180.946 178.341 181.238 177.674 181.319C177.283 181.367 176.937 181.307 176.637 181.139C176.337 180.971 176.17 180.745 176.135 180.462C176.098 180.16 176.249 179.831 176.587 179.475C176.929 179.118 177.518 178.672 178.354 178.137L177.797 177.444C177.12 176.602 176.75 175.925 176.688 175.413C176.598 174.676 176.954 174.031 177.756 173.476C178.308 173.613 178.602 173.835 178.64 174.142C178.693 174.576 178.408 175.034 177.786 175.515L178.598 176.655L179.231 177.534C179.918 177.002 180.43 176.556 180.768 176.196C181.105 175.832 181.52 175.285 182.014 174.556L182.514 174.784C181.816 176.003 180.843 177.07 179.593 177.986ZM178.668 178.63C177.603 179.382 177.091 179.927 177.132 180.264C177.171 180.582 177.421 180.713 177.883 180.656C178.224 180.615 178.487 180.464 178.672 180.206C178.857 179.951 178.928 179.641 178.883 179.277C178.857 179.06 178.785 178.844 178.668 178.63Z" fill="black"/>
</g>
<g filter="url(#filter12_d_424_136)">
<path d="M207.103 175.63C207.216 175.816 207.276 175.982 207.283 176.126C207.299 176.509 206.994 176.946 206.367 177.439C205.743 177.928 205.166 178.184 204.635 178.207C204.167 178.228 203.775 178.036 203.46 177.631C203.149 177.226 202.979 176.694 202.95 176.035C202.918 175.301 203.065 174.249 203.392 172.878L203.619 171.882L202.629 171.926C202.216 171.944 201.888 172.017 201.648 172.145C201.856 171.721 202.032 171.453 202.176 171.342C202.319 171.23 202.569 171.166 202.924 171.15L203.808 171.112L203.907 170.703C204.06 170.094 204.257 169.673 204.497 169.439C204.737 169.202 205.106 169.072 205.606 169.05C205.664 169.048 205.758 169.048 205.887 169.05C205.6 169.453 205.313 170.123 205.025 171.058L208.116 170.923C208.658 170.899 209.069 170.81 209.348 170.657C209.268 171.064 209.149 171.333 208.99 171.465C208.836 171.593 208.538 171.667 208.097 171.686L204.807 171.83C204.774 171.961 204.748 172.058 204.732 172.121C204.33 173.749 204.147 174.973 204.183 175.793C204.223 176.698 204.568 177.137 205.22 177.108C205.556 177.093 205.914 176.935 206.296 176.633C206.682 176.331 206.95 175.996 207.103 175.63Z" fill="black"/>
</g>
<g filter="url(#filter13_d_424_136)">
<path d="M215.84 177.72C215.576 177.847 215.363 177.911 215.203 177.912C214.805 177.916 214.604 177.741 214.601 177.39C214.6 177.21 214.666 176.762 214.801 176.046L215.082 174.585C215.255 173.716 215.34 173.073 215.336 172.655C215.335 172.429 215.269 172.24 215.138 172.088C215.547 171.944 215.881 171.871 216.139 171.869C216.412 171.867 216.55 172.04 216.553 172.387C216.555 172.602 216.462 173.168 216.274 174.083L215.954 175.791C216.68 174.351 217.413 173.232 218.153 172.433C218.897 171.63 219.573 171.226 220.182 171.221C220.397 171.22 220.583 171.281 220.74 171.404C220.898 171.524 220.977 171.672 220.978 171.848C220.981 172.121 220.687 172.487 220.097 172.945C219.946 172.637 219.734 172.485 219.46 172.487C218.964 172.491 218.336 173.023 217.575 174.084C217.103 174.744 216.695 175.426 216.349 176.128C216.003 176.826 215.831 177.323 215.834 177.62L215.84 177.72Z" fill="black"/>
</g>
<g filter="url(#filter14_d_424_136)">
<path d="M232.271 174.404C231.736 175.421 231.09 176.281 230.331 176.982C229.576 177.68 228.928 178.019 228.385 178.001C227.971 177.987 227.646 177.792 227.408 177.417C227.175 177.038 227.069 176.541 227.089 175.929C227.131 174.707 227.536 173.644 228.305 172.739C229.079 171.835 229.951 171.4 230.923 171.433C231.513 171.453 232.145 171.658 232.82 172.048C232.934 171.688 233.353 171.521 234.08 171.545C234.126 171.547 234.203 171.552 234.308 171.559C234.074 171.891 233.888 172.35 233.751 172.935L233.635 173.43C233.503 173.98 233.424 174.627 233.399 175.368C233.37 176.223 233.555 176.658 233.953 176.671C234.375 176.685 234.962 176.353 235.716 175.675C236.474 174.994 237.225 174.12 237.968 173.055L238.414 173.387C237.648 174.65 236.786 175.698 235.828 176.529C234.87 177.357 234.057 177.759 233.389 177.737C232.546 177.708 232.148 176.991 232.196 175.586C232.206 175.293 232.231 174.899 232.271 174.404ZM232.594 173.014C231.792 172.451 231.12 172.16 230.577 172.142C229.987 172.122 229.466 172.464 229.012 173.168C228.558 173.868 228.315 174.71 228.282 175.693C228.255 176.482 228.499 176.885 229.015 176.902C229.573 176.921 230.682 175.732 232.342 173.333C232.363 173.303 232.447 173.196 232.594 173.014Z" fill="black"/>
</g>
<g filter="url(#filter15_d_424_136)">
<path d="M244.675 178.844C244.786 178.508 244.852 178.215 244.871 177.966C244.944 177.004 244.82 175.925 244.499 174.729C244.179 173.534 243.766 172.619 243.262 171.985C243.614 171.839 243.924 171.777 244.193 171.797C244.622 171.83 245.011 172.425 245.362 173.584C245.717 174.739 245.929 176.121 245.999 177.728C246.746 176.915 247.377 176.066 247.891 175.181C248.405 174.295 248.716 173.522 248.825 172.86C249.392 173.138 249.664 173.425 249.641 173.721C249.621 173.986 249.295 174.565 248.663 175.457C248.035 176.349 247.362 177.187 246.645 177.971C246.295 178.352 246.006 178.593 245.779 178.693C245.552 178.793 245.184 178.844 244.675 178.844Z" fill="black"/>
</g>
<g filter="url(#filter16_d_424_136)">
<path d="M257.131 177.388C257 178.525 257.415 179.149 258.378 179.26C259.212 179.356 260.178 179.064 261.274 178.384C262.371 177.704 263.398 176.761 264.355 175.554L264.818 175.885C263.894 177.217 262.769 178.279 261.443 179.07C260.121 179.862 258.915 180.195 257.825 180.069C257.126 179.989 256.599 179.7 256.243 179.203C255.892 178.706 255.761 178.068 255.851 177.288C255.98 176.162 256.458 175.242 257.283 174.527C258.112 173.813 259.045 173.515 260.081 173.635C260.582 173.692 260.967 173.864 261.237 174.151C261.511 174.438 261.623 174.793 261.574 175.216C261.494 175.911 261.004 176.478 260.104 176.917C259.209 177.356 258.217 177.513 257.131 177.388ZM257.242 176.835C258.058 176.885 258.779 176.732 259.406 176.376C260.037 176.02 260.384 175.565 260.448 175.01C260.505 174.513 260.313 174.239 259.87 174.188C259.342 174.127 258.823 174.355 258.311 174.87C257.8 175.385 257.443 176.04 257.242 176.835Z" fill="black"/>
</g>
<g filter="url(#filter17_d_424_136)">
<path d="M276.481 177.679C275.452 179.076 274.468 180.146 273.529 180.889C272.592 181.627 271.812 181.95 271.19 181.856C270.738 181.787 270.4 181.558 270.174 181.168C269.949 180.775 269.88 180.296 269.965 179.732C270.013 179.415 270.139 178.976 270.343 178.414L272.375 172.784C272.221 172.785 272.088 172.776 271.976 172.759C271.088 172.625 270.7 172.187 270.812 171.445L270.832 171.312C271.256 171.645 271.759 171.855 272.342 171.944C272.926 172.032 273.457 171.965 273.938 171.741L271.538 178.507C271.323 179.114 271.198 179.536 271.162 179.771C271.063 180.424 271.253 180.787 271.732 180.859C272.196 180.929 272.701 180.739 273.247 180.289C273.798 179.835 274.737 178.835 276.066 177.29L276.481 177.679Z" fill="black"/>
</g>
<g filter="url(#filter18_d_424_136)">
<path d="M281.412 180.958C281.2 182.083 281.57 182.735 282.522 182.914C283.347 183.07 284.331 182.847 285.474 182.248C286.616 181.648 287.708 180.78 288.748 179.645L289.187 180.007C288.17 181.271 286.972 182.25 285.593 182.944C284.218 183.639 282.991 183.885 281.912 183.682C281.221 183.552 280.716 183.226 280.397 182.705C280.082 182.184 279.997 181.538 280.142 180.767C280.351 179.654 280.893 178.77 281.768 178.116C282.646 177.462 283.598 177.232 284.623 177.425C285.118 177.518 285.49 177.717 285.738 178.023C285.991 178.328 286.078 178.691 285.999 179.109C285.87 179.796 285.34 180.327 284.412 180.7C283.486 181.075 282.486 181.161 281.412 180.958ZM281.562 180.414C282.372 180.523 283.103 180.422 283.753 180.111C284.408 179.801 284.787 179.372 284.89 178.823C284.983 178.331 284.81 178.045 284.373 177.962C283.85 177.864 283.316 178.053 282.769 178.531C282.222 179.008 281.82 179.636 281.562 180.414Z" fill="black"/>
</g>
<g filter="url(#filter19_d_424_136)">
<path d="M294.699 186.131C294.413 186.194 294.191 186.207 294.035 186.172C293.647 186.083 293.492 185.867 293.57 185.524C293.61 185.349 293.778 184.929 294.075 184.263L294.686 182.907C295.055 182.101 295.285 181.495 295.379 181.087C295.429 180.867 295.409 180.668 295.317 180.49C295.748 180.445 296.089 180.451 296.341 180.508C296.607 180.569 296.702 180.769 296.624 181.108C296.576 181.317 296.355 181.846 295.961 182.693L295.255 184.281C296.294 183.048 297.266 182.129 298.17 181.522C299.079 180.912 299.831 180.676 300.425 180.812C300.634 180.859 300.801 180.962 300.926 181.119C301.051 181.271 301.094 181.434 301.055 181.605C300.994 181.871 300.623 182.159 299.943 182.469C299.868 182.135 299.696 181.937 299.43 181.876C298.946 181.766 298.212 182.138 297.226 182.995C296.615 183.528 296.061 184.097 295.562 184.7C295.064 185.299 294.782 185.744 294.716 186.033L294.699 186.131Z" fill="black"/>
</g>
<path d="M206.885 67.1334C205.687 63.853 158.589 68.6913 139.621 69.147L138.5 75.9812H180.054L137 92L136 101.5L194.655 75.9812H213L206.885 67.1334Z" fill="#734F15" stroke="black"/>
<path d="M221.963 102.176L229 106.588L150 110.257L134 111L166.5 104.824L206.5 96.8824L220.25 96L221.963 102.176Z" fill="#734F15"/>
<path d="M221.963 102.176L229 106.588L150 110.257M221.963 102.176L220.25 96L206.5 96.8824L166.5 104.824L134 111L150 110.257M221.963 102.176L198.5 103L176 106L150 110.257" stroke="black"/>
<defs>
<filter id="filter0_d_424_136" x="20.1469" y="177.803" width="341.356" height="102.789" filterUnits="userSpaceOnUse" color-interpolation-filters="sRGB">
<feFlood flood-opacity="0" result="BackgroundImageFix"/>
<feColorMatrix in="SourceAlpha" type="matrix" values="0 0 0 0 0 0 0 0 0 0 0 0 0 0 0 0 0 0 127 0" result="hardAlpha"/>
<feOffset dy="4"/>
<feGaussianBlur stdDeviation="2"/>
<feComposite in2="hardAlpha" operator="out"/>
<feColorMatrix type="matrix" values="0 0 0 0 0 0 0 0 0 0 0 0 0 0 0 0 0 0 0.25 0"/>
<feBlend mode="normal" in2="BackgroundImageFix" result="effect1_dropShadow_424_136"/>
<feBlend mode="normal" in="SourceGraphic" in2="effect1_dropShadow_424_136" result="shape"/>
</filter>
<filter id="filter1_d_424_136" x="42.3505" y="144.5" width="273.15" height="109.237" filterUnits="userSpaceOnUse" color-interpolation-filters="sRGB">
<feFlood flood-opacity="0" result="BackgroundImageFix"/>
<feColorMatrix in="SourceAlpha" type="matrix" values="0 0 0 0 0 0 0 0 0 0 0 0 0 0 0 0 0 0 127 0" result="hardAlpha"/>
<feOffset dy="4"/>
<feGaussianBlur stdDeviation="2"/>
<feComposite in2="hardAlpha" operator="out"/>
<feColorMatrix type="matrix" values="0 0 0 0 0 0 0 0 0 0 0 0 0 0 0 0 0 0 0.25 0"/>
<feBlend mode="normal" in2="BackgroundImageFix" result="effect1_dropShadow_424_136"/>
<feBlend mode="normal" in="SourceGraphic" in2="effect1_dropShadow_424_136" result="shape"/>
</filter>
<filter id="filter2_d_424_136" x="0.689026" y="0.357094" width="356.842" height="212.618" filterUnits="userSpaceOnUse" color-interpolation-filters="sRGB">
<feFlood flood-opacity="0" result="BackgroundImageFix"/>
<feColorMatrix in="SourceAlpha" type="matrix" values="0 0 0 0 0 0 0 0 0 0 0 0 0 0 0 0 0 0 127 0" result="hardAlpha"/>
<feOffset dy="4"/>
<feGaussianBlur stdDeviation="2"/>
<feComposite in2="hardAlpha" operator="out"/>
<feColorMatrix type="matrix" values="0 0 0 0 0 0 0 0 0 0 0 0 0 0 0 0 0 0 0.25 0"/>
<feBlend mode="normal" in2="BackgroundImageFix" result="effect1_dropShadow_424_136"/>
<feBlend mode="normal" in="SourceGraphic" in2="effect1_dropShadow_424_136" result="shape"/>
</filter>
<filter id="filter3_d_424_136" x="66.1595" y="199.857" width="19.5298" height="20.7776" filterUnits="userSpaceOnUse" color-interpolation-filters="sRGB">
<feFlood flood-opacity="0" result="BackgroundImageFix"/>
<feColorMatrix in="SourceAlpha" type="matrix" values="0 0 0 0 0 0 0 0 0 0 0 0 0 0 0 0 0 0 127 0" result="hardAlpha"/>
<feOffset dx="2" dy="4"/>
<feGaussianBlur stdDeviation="2"/>
<feComposite in2="hardAlpha" operator="out"/>
<feColorMatrix type="matrix" values="0 0 0 0 0 0 0 0 0 0 0 0 0 0 0 0 0 0 0.25 0"/>
<feBlend mode="normal" in2="BackgroundImageFix" result="effect1_dropShadow_424_136"/>
<feBlend mode="normal" in="SourceGraphic" in2="effect1_dropShadow_424_136" result="shape"/>
</filter>
<filter id="filter4_d_424_136" x="81.3003" y="196.486" width="16.492" height="16.6146" filterUnits="userSpaceOnUse" color-interpolation-filters="sRGB">
<feFlood flood-opacity="0" result="BackgroundImageFix"/>
<feColorMatrix in="SourceAlpha" type="matrix" values="0 0 0 0 0 0 0 0 0 0 0 0 0 0 0 0 0 0 127 0" result="hardAlpha"/>
<feOffset dx="2" dy="4"/>
<feGaussianBlur stdDeviation="2"/>
<feComposite in2="hardAlpha" operator="out"/>
<feColorMatrix type="matrix" values="0 0 0 0 0 0 0 0 0 0 0 0 0 0 0 0 0 0 0.25 0"/>
<feBlend mode="normal" in2="BackgroundImageFix" result="effect1_dropShadow_424_136"/>
<feBlend mode="normal" in="SourceGraphic" in2="effect1_dropShadow_424_136" result="shape"/>
</filter>
<filter id="filter5_d_424_136" x="93.0557" y="191.148" width="18.5227" height="17.2922" filterUnits="userSpaceOnUse" color-interpolation-filters="sRGB">
<feFlood flood-opacity="0" result="BackgroundImageFix"/>
<feColorMatrix in="SourceAlpha" type="matrix" values="0 0 0 0 0 0 0 0 0 0 0 0 0 0 0 0 0 0 127 0" result="hardAlpha"/>
<feOffset dx="2" dy="4"/>
<feGaussianBlur stdDeviation="2"/>
<feComposite in2="hardAlpha" operator="out"/>
<feColorMatrix type="matrix" values="0 0 0 0 0 0 0 0 0 0 0 0 0 0 0 0 0 0 0.25 0"/>
<feBlend mode="normal" in2="BackgroundImageFix" result="effect1_dropShadow_424_136"/>
<feBlend mode="normal" in="SourceGraphic" in2="effect1_dropShadow_424_136" result="shape"/>
</filter>
<filter id="filter6_d_424_136" x="106.264" y="186.727" width="18.3862" height="17.0477" filterUnits="userSpaceOnUse" color-interpolation-filters="sRGB">
<feFlood flood-opacity="0" result="BackgroundImageFix"/>
<feColorMatrix in="SourceAlpha" type="matrix" values="0 0 0 0 0 0 0 0 0 0 0 0 0 0 0 0 0 0 127 0" result="hardAlpha"/>
<feOffset dx="2" dy="4"/>
<feGaussianBlur stdDeviation="2"/>
<feComposite in2="hardAlpha" operator="out"/>
<feColorMatrix type="matrix" values="0 0 0 0 0 0 0 0 0 0 0 0 0 0 0 0 0 0 0.25 0"/>
<feBlend mode="normal" in2="BackgroundImageFix" result="effect1_dropShadow_424_136"/>
<feBlend mode="normal" in="SourceGraphic" in2="effect1_dropShadow_424_136" result="shape"/>
</filter>
<filter id="filter7_d_424_136" x="118.233" y="180.957" width="17.972" height="18.8947" filterUnits="userSpaceOnUse" color-interpolation-filters="sRGB">
<feFlood flood-opacity="0" result="BackgroundImageFix"/>
<feColorMatrix in="SourceAlpha" type="matrix" values="0 0 0 0 0 0 0 0 0 0 0 0 0 0 0 0 0 0 127 0" result="hardAlpha"/>
<feOffset dx="2" dy="4"/>
<feGaussianBlur stdDeviation="2"/>
<feComposite in2="hardAlpha" operator="out"/>
<feColorMatrix type="matrix" values="0 0 0 0 0 0 0 0 0 0 0 0 0 0 0 0 0 0 0.25 0"/>
<feBlend mode="normal" in2="BackgroundImageFix" result="effect1_dropShadow_424_136"/>
<feBlend mode="normal" in="SourceGraphic" in2="effect1_dropShadow_424_136" result="shape"/>
</filter>
<filter id="filter8_d_424_136" x="130.974" y="178.062" width="16.5738" height="18.379" filterUnits="userSpaceOnUse" color-interpolation-filters="sRGB">
<feFlood flood-opacity="0" result="BackgroundImageFix"/>
<feColorMatrix in="SourceAlpha" type="matrix" values="0 0 0 0 0 0 0 0 0 0 0 0 0 0 0 0 0 0 127 0" result="hardAlpha"/>
<feOffset dx="2" dy="4"/>
<feGaussianBlur stdDeviation="2"/>
<feComposite in2="hardAlpha" operator="out"/>
<feColorMatrix type="matrix" values="0 0 0 0 0 0 0 0 0 0 0 0 0 0 0 0 0 0 0.25 0"/>
<feBlend mode="normal" in2="BackgroundImageFix" result="effect1_dropShadow_424_136"/>
<feBlend mode="normal" in="SourceGraphic" in2="effect1_dropShadow_424_136" result="shape"/>
</filter>
<filter id="filter9_d_424_136" x="143.45" y="177.006" width="19.7505" height="16.6762" filterUnits="userSpaceOnUse" color-interpolation-filters="sRGB">
<feFlood flood-opacity="0" result="BackgroundImageFix"/>
<feColorMatrix in="SourceAlpha" type="matrix" values="0 0 0 0 0 0 0 0 0 0 0 0 0 0 0 0 0 0 127 0" result="hardAlpha"/>
<feOffset dx="2" dy="4"/>
<feGaussianBlur stdDeviation="2"/>
<feComposite in2="hardAlpha" operator="out"/>
<feColorMatrix type="matrix" values="0 0 0 0 0 0 0 0 0 0 0 0 0 0 0 0 0 0 0.25 0"/>
<feBlend mode="normal" in2="BackgroundImageFix" result="effect1_dropShadow_424_136"/>
<feBlend mode="normal" in="SourceGraphic" in2="effect1_dropShadow_424_136" result="shape"/>
</filter>
<filter id="filter10_d_424_136" x="158.353" y="174.071" width="20.035" height="20.4519" filterUnits="userSpaceOnUse" color-interpolation-filters="sRGB">
<feFlood flood-opacity="0" result="BackgroundImageFix"/>
<feColorMatrix in="SourceAlpha" type="matrix" values="0 0 0 0 0 0 0 0 0 0 0 0 0 0 0 0 0 0 127 0" result="hardAlpha"/>
<feOffset dx="2" dy="4"/>
<feGaussianBlur stdDeviation="2"/>
<feComposite in2="hardAlpha" operator="out"/>
<feColorMatrix type="matrix" values="0 0 0 0 0 0 0 0 0 0 0 0 0 0 0 0 0 0 0.25 0"/>
<feBlend mode="normal" in2="BackgroundImageFix" result="effect1_dropShadow_424_136"/>
<feBlend mode="normal" in="SourceGraphic" in2="effect1_dropShadow_424_136" result="shape"/>
</filter>
<filter id="filter11_d_424_136" x="173.319" y="172.923" width="15.9103" height="16.569" filterUnits="userSpaceOnUse" color-interpolation-filters="sRGB">
<feFlood flood-opacity="0" result="BackgroundImageFix"/>
<feColorMatrix in="SourceAlpha" type="matrix" values="0 0 0 0 0 0 0 0 0 0 0 0 0 0 0 0 0 0 127 0" result="hardAlpha"/>
<feOffset dx="2" dy="4"/>
<feGaussianBlur stdDeviation="2"/>
<feComposite in2="hardAlpha" operator="out"/>
<feColorMatrix type="matrix" values="0 0 0 0 0 0 0 0 0 0 0 0 0 0 0 0 0 0 0.25 0"/>
<feBlend mode="normal" in2="BackgroundImageFix" result="effect1_dropShadow_424_136"/>
<feBlend mode="normal" in="SourceGraphic" in2="effect1_dropShadow_424_136" result="shape"/>
</filter>
<filter id="filter12_d_424_136" x="199.52" y="168.89" width="16.1494" height="17.4367" filterUnits="userSpaceOnUse" color-interpolation-filters="sRGB">
<feFlood flood-opacity="0" result="BackgroundImageFix"/>
<feColorMatrix in="SourceAlpha" type="matrix" values="0 0 0 0 0 0 0 0 0 0 0 0 0 0 0 0 0 0 127 0" result="hardAlpha"/>
<feOffset dx="2" dy="4"/>
<feGaussianBlur stdDeviation="2"/>
<feComposite in2="hardAlpha" operator="out"/>
<feColorMatrix type="matrix" values="0 0 0 0 0 0 0 0 0 0 0 0 0 0 0 0 0 0 0.25 0"/>
<feBlend mode="normal" in2="BackgroundImageFix" result="effect1_dropShadow_424_136"/>
<feBlend mode="normal" in="SourceGraphic" in2="effect1_dropShadow_424_136" result="shape"/>
</filter>
<filter id="filter13_d_424_136" x="212.552" y="171.215" width="14.4755" height="14.7022" filterUnits="userSpaceOnUse" color-interpolation-filters="sRGB">
<feFlood flood-opacity="0" result="BackgroundImageFix"/>
<feColorMatrix in="SourceAlpha" type="matrix" values="0 0 0 0 0 0 0 0 0 0 0 0 0 0 0 0 0 0 127 0" result="hardAlpha"/>
<feOffset dx="2" dy="4"/>
<feGaussianBlur stdDeviation="2"/>
<feComposite in2="hardAlpha" operator="out"/>
<feColorMatrix type="matrix" values="0 0 0 0 0 0 0 0 0 0 0 0 0 0 0 0 0 0 0.25 0"/>
<feBlend mode="normal" in2="BackgroundImageFix" result="effect1_dropShadow_424_136"/>
<feBlend mode="normal" in="SourceGraphic" in2="effect1_dropShadow_424_136" result="shape"/>
</filter>
<filter id="filter14_d_424_136" x="225.021" y="171.308" width="19.4511" height="15.0267" filterUnits="userSpaceOnUse" color-interpolation-filters="sRGB">
<feFlood flood-opacity="0" result="BackgroundImageFix"/>
<feColorMatrix in="SourceAlpha" type="matrix" values="0 0 0 0 0 0 0 0 0 0 0 0 0 0 0 0 0 0 127 0" result="hardAlpha"/>
<feOffset dx="2" dy="4"/>
<feGaussianBlur stdDeviation="2"/>
<feComposite in2="hardAlpha" operator="out"/>
<feColorMatrix type="matrix" values="0 0 0 0 0 0 0 0 0 0 0 0 0 0 0 0 0 0 0.25 0"/>
<feBlend mode="normal" in2="BackgroundImageFix" result="effect1_dropShadow_424_136"/>
<feBlend mode="normal" in="SourceGraphic" in2="effect1_dropShadow_424_136" result="shape"/>
</filter>
<filter id="filter15_d_424_136" x="240.752" y="171.728" width="15.0029" height="15.4618" filterUnits="userSpaceOnUse" color-interpolation-filters="sRGB">
<feFlood flood-opacity="0" result="BackgroundImageFix"/>
<feColorMatrix in="SourceAlpha" type="matrix" values="0 0 0 0 0 0 0 0 0 0 0 0 0 0 0 0 0 0 127 0" result="hardAlpha"/>
<feOffset dx="2" dy="4"/>
<feGaussianBlur stdDeviation="2"/>
<feComposite in2="hardAlpha" operator="out"/>
<feColorMatrix type="matrix" values="0 0 0 0 0 0 0 0 0 0 0 0 0 0 0 0 0 0 0.25 0"/>
<feBlend mode="normal" in2="BackgroundImageFix" result="effect1_dropShadow_424_136"/>
<feBlend mode="normal" in="SourceGraphic" in2="effect1_dropShadow_424_136" result="shape"/>
</filter>
<filter id="filter16_d_424_136" x="253.56" y="173.202" width="17.4514" height="15.6074" filterUnits="userSpaceOnUse" color-interpolation-filters="sRGB">
<feFlood flood-opacity="0" result="BackgroundImageFix"/>
<feColorMatrix in="SourceAlpha" type="matrix" values="0 0 0 0 0 0 0 0 0 0 0 0 0 0 0 0 0 0 127 0" result="hardAlpha"/>
<feOffset dx="2" dy="4"/>
<feGaussianBlur stdDeviation="2"/>
<feComposite in2="hardAlpha" operator="out"/>
<feColorMatrix type="matrix" values="0 0 0 0 0 0 0 0 0 0 0 0 0 0 0 0 0 0 0.25 0"/>
<feBlend mode="normal" in2="BackgroundImageFix" result="effect1_dropShadow_424_136"/>
<feBlend mode="normal" in="SourceGraphic" in2="effect1_dropShadow_424_136" result="shape"/>
</filter>
<filter id="filter17_d_424_136" x="267.278" y="171.271" width="16.0251" height="19.2742" filterUnits="userSpaceOnUse" color-interpolation-filters="sRGB">
<feFlood flood-opacity="0" result="BackgroundImageFix"/>
<feColorMatrix in="SourceAlpha" type="matrix" values="0 0 0 0 0 0 0 0 0 0 0 0 0 0 0 0 0 0 127 0" result="hardAlpha"/>
<feOffset dx="2" dy="4"/>
<feGaussianBlur stdDeviation="2"/>
<feComposite in2="hardAlpha" operator="out"/>
<feColorMatrix type="matrix" values="0 0 0 0 0 0 0 0 0 0 0 0 0 0 0 0 0 0 0.25 0"/>
<feBlend mode="normal" in2="BackgroundImageFix" result="effect1_dropShadow_424_136"/>
<feBlend mode="normal" in="SourceGraphic" in2="effect1_dropShadow_424_136" result="shape"/>
</filter>
<filter id="filter18_d_424_136" x="277.672" y="176.725" width="17.8275" height="16.1543" filterUnits="userSpaceOnUse" color-interpolation-filters="sRGB">
<feFlood flood-opacity="0" result="BackgroundImageFix"/>
<feColorMatrix in="SourceAlpha" type="matrix" values="0 0 0 0 0 0 0 0 0 0 0 0 0 0 0 0 0 0 127 0" result="hardAlpha"/>
<feOffset dx="2" dy="4"/>
<feGaussianBlur stdDeviation="2"/>
<feComposite in2="hardAlpha" operator="out"/>
<feColorMatrix type="matrix" values="0 0 0 0 0 0 0 0 0 0 0 0 0 0 0 0 0 0 0.25 0"/>
<feBlend mode="normal" in2="BackgroundImageFix" result="effect1_dropShadow_424_136"/>
<feBlend mode="normal" in="SourceGraphic" in2="effect1_dropShadow_424_136" result="shape"/>
</filter>
<filter id="filter19_d_424_136" x="291.452" y="179.556" width="15.7435" height="15.9153" filterUnits="userSpaceOnUse" color-interpolation-filters="sRGB">
<feFlood flood-opacity="0" result="BackgroundImageFix"/>
<feColorMatrix in="SourceAlpha" type="matrix" values="0 0 0 0 0 0 0 0 0 0 0 0 0 0 0 0 0 0 127 0" result="hardAlpha"/>
<feOffset dx="2" dy="4"/>
<feGaussianBlur stdDeviation="2"/>
<feComposite in2="hardAlpha" operator="out"/>
<feColorMatrix type="matrix" values="0 0 0 0 0 0 0 0 0 0 0 0 0 0 0 0 0 0 0.25 0"/>
<feBlend mode="normal" in2="BackgroundImageFix" result="effect1_dropShadow_424_136"/>
<feBlend mode="normal" in="SourceGraphic" in2="effect1_dropShadow_424_136" result="shape"/>
</filter>
</defs>
</svg>
