<svg width="2170" height="2729" viewBox="0 0 2170 2729" fill="none" xmlns="http://www.w3.org/2000/svg">
<path d="M114.113 52.9429L48.1304 1L38.7043 44.2857L48.1304 684.914C63.2122 816.503 54.4145 1074.49 48.1304 1187.03H29.2783V1204.34V1247.63V1697.8L19.8522 1819L10.4261 1853.63H19.8522L38.7043 1844.97L48.1304 1853.63V1896.91L38.7043 1957.51L10.4261 1931.54L1 2693.37L48.1304 2728L66.9826 2693.37H95.2609H1000.17C1052.95 2700.3 1072.43 2650.09 1075.57 2624.11L1094.43 2684.71L1716.55 2693.37L1735.4 2676.06H1754.25L1791.96 2702.03H1952.2L1971.05 2684.71L1989.9 2693.37L1999.33 2684.71L2018.18 2702.03H2140.72L2169 2632.77L2112.44 2468.29L2159.57 2511.57L2150.15 2147.97L2169 1723.77V1567.94L2150.15 1524.66L2121.87 1541.97L2112.44 1282.26L2150.15 1308.23V1290.91C2150.15 1132.2 2146.38 778.411 2131.3 632.971C2116.21 487.531 2137.58 179.914 2150.15 44.2857L2093.59 96.2286L2084.17 35.6286L1452.62 44.2857C1120.82 51.2114 931.041 41.4 877.626 35.6286L858.774 70.2571L839.922 35.6286L811.643 44.2857L783.365 26.9714H632.548H519.435L510.009 44.2857H264.93L161.243 35.6286L114.113 52.9429Z" fill="#B39B91" stroke="black"/>
</svg>
