<svg width="1690" height="2200" viewBox="0 0 1690 2200" fill="none" xmlns="http://www.w3.org/2000/svg">
<path d="M192.5 666.501L260.5 405.502L263 396.502L130.5 397.501C102.9 398.701 72 359.001 60 339.001L165 308.501L43 294.502L34.5 248.501V144.502L43 108.001C71.5 2.00134 111 12.0003 134 6.00033C152.4 1.20033 207 6.26777 216.5 21.4008L420 44.5017L809.5 86.5017H1150.5L1270 55.5017L1451 21.0017L1548.5 95.0017C1608.9 145.002 1612 230.168 1606 266.502L1451 316.002L1606 340.002L1582.5 510.502L1515 747.501L1419.5 961.501L1366 985.001L1336.5 1005.5L1419.5 1049L1406 1160.5L1391.5 1375L1406 1632.5L1275.5 1657L1310 1677.5L1419.5 1668.5L1441.5 1748L1590.5 1727.5L1662 1818.5C1690 1838.1 1688 1941.67 1683.5 1987.5C1687.9 2036.3 1628 2094.17 1597.5 2117L1409 2102.5L1210.5 2092.5H865L668 2116.5L344 2189C286 2209.8 228.833 2180.33 207.5 2163L278 2092.5L161.5 2134.5L61 1996L4.5 1570L117 1515.5L20.5 1505.5V1355L79 1137.5L192.5 700.001L345 691.501L329.5 681.001L192.5 666.501Z" fill="#D9D9D9"/>
<path d="M216.5 21.4008C253 56.8518 275.692 112.932 284 144.502V153.002M216.5 21.4008L420 44.5017L809.5 86.5017H1150.5L1270 55.5017L1451 21.0017L1548.5 95.0017C1608.9 145.002 1612 230.168 1606 266.502L1451 316.002L1606 340.002L1582.5 510.502L1515 747.501L1419.5 961.501L1366 985.001L1336.5 1005.5L1419.5 1049L1406 1160.5L1391.5 1375L1406 1632.5L1275.5 1657L1310 1677.5L1419.5 1668.5L1441.5 1748M216.5 21.4008C207 6.26777 152.4 1.20033 134 6.00033C111 12.0003 71.5 2.00134 43 108.001L34.5 144.502V248.501L43 294.502L165 308.501L60 339.001C72 359.001 102.9 398.701 130.5 397.501M344 2189C286 2209.8 228.833 2180.33 207.5 2163L278 2092.5L161.5 2134.5L61 1996L4.5 1570L117 1515.5L20.5 1505.5V1355L79 1137.5L192.5 700.001L345 691.501L329.5 681.001L192.5 666.501L260.5 405.502L263 396.502M344 2189L668 2116.5L865 2092.5H1210.5L1409 2102.5L1597.5 2117C1628 2094.17 1687.9 2036.3 1683.5 1987.5C1688 1941.67 1690 1838.1 1662 1818.5L1590.5 1727.5L1441.5 1748M344 2189L354 2163L372.5 2142.5L390.5 2114L400.5 2079L404 2014M1441.5 1748H1419.5L1402.5 1757.5L1210.5 1771H514.5L306 1779M306 1779C276 1783.67 212 1802.3 196 1839.5C187.667 1859.17 171 1903.6 171 1924C171 1949.5 167 1977 188.5 1996C210 2015 236 2031 257 2027.5M306 1779C335.2 1775.4 367.833 1866.5 380.5 1896.5M257 2027.5C273.667 2022.67 308.7 2006.6 315.5 1981C320.833 1972.5 329 1950.7 319 1931.5L289 1924L319 1909L380.5 1896.5M257 2027.5L404 2014M130.5 397.501C165 396.001 208 350.501 216.5 308.501C223.3 274.902 219.333 245.835 216.5 235.501M130.5 397.501L263 396.502M216.5 235.501C212.167 203.834 197.2 142.601 172 151.001M216.5 235.501L130.5 248.501L122 202.501L130.5 161.502C152.5 141.102 167.333 146.002 172 151.001M172 151.001L284 153.002M263 396.502L265.5 387.502L279 294.502L284 266.502V161.502V153.002M380.5 1896.5L396 1909L481.5 1916L404 1964.5V2014" stroke="black" stroke-width="7"/>
</svg>
