<svg width="328" height="449" viewBox="0 0 328 449" fill="none" xmlns="http://www.w3.org/2000/svg">
<path d="M18.0087 9.51429L8.08696 1L6.66957 8.09524L8.08696 113.105C10.3548 134.674 9.03188 176.962 8.08696 195.41H5.25217V198.248V205.343V279.133L3.83478 299L2.41739 304.676H3.83478L6.66957 303.257L8.08696 304.676V311.771L6.66957 321.705L2.41739 317.448L1 442.324L8.08696 448L10.9217 442.324H15.1739H151.243C159.181 443.459 162.11 435.229 162.583 430.971L165.417 440.905L258.965 442.324L261.8 439.486H264.635L270.304 443.743H294.4L297.235 440.905L300.07 442.324L301.487 440.905L304.322 443.743H322.748L327 432.39L318.496 405.429L325.583 412.524L324.165 352.924L327 283.39V257.848L324.165 250.752L319.913 253.59L318.496 211.019L324.165 215.276V212.438C324.165 186.422 323.598 128.43 321.33 104.59C319.063 80.7505 322.275 30.327 324.165 8.09524L315.661 16.6095L314.243 6.67619L219.278 8.09524C169.386 9.23048 140.849 7.62222 132.817 6.67619L129.983 12.3524L127.148 6.67619L122.896 8.09524L118.643 5.25714H95.9652H78.9565L77.5391 8.09524H40.687L25.0957 6.67619L18.0087 9.51429Z" fill="#B39B91" stroke="black"/>
</svg>
