<svg width="2105" height="2669" viewBox="0 0 2105 2669" fill="none" xmlns="http://www.w3.org/2000/svg">
<path d="M248.525 107.7L209.236 29.4038L134.585 84.2115L75.6505 29.4038L107.082 205.571V444.376L209.236 475.695L107.082 514.843L134.585 800.626L75.6505 957.219L134.585 1012.03L59.9346 1254.75L107.082 1505.3L59.9346 1744.1L134.585 1767.59L59.9346 1822.4L134.585 1841.97L59.9346 1892.86L107.082 2225.62L1 2656.26L75.6505 2585.79L248.525 2668V2585.79L334.963 2668L496.05 2585.79L653.209 2632.77L1030.39 2656.26L1057.89 2585.79L1089.33 2656.26L1279.17 2585.79L1517.58 2668L1563.82 2562.3L1611.88 2656.26L1894.76 2632.77L2103 2656.26L2044.07 2585.79L2103 2319.58L2044.07 1998.56L1989.06 1963.33L2044.07 1904.61L2079.43 1611L2016.56 1219.51L2044.07 800.626L1965.49 757.562L2044.07 722.329L1989.06 542.247L2044.07 444.376L1989.06 397.398L2016.56 2L1965.49 84.2115L1937.98 2L1533.3 84.2115L1391.86 2L1203.27 84.2115L873.232 2V84.2115L830.013 2L802.51 84.2115L759.292 2L460.69 48.978L268.17 29.4038L248.525 107.7Z" fill="url(#paint0_radial_460_19)" stroke="black"/>
<defs>
<radialGradient id="paint0_radial_460_19" cx="0" cy="0" r="1" gradientUnits="userSpaceOnUse" gradientTransform="translate(1050.04 1309.55) rotate(90) scale(2092.01 1649.44)">
<stop stop-color="#DECA83"/>
<stop offset="0.823983" stop-color="#756428"/>
</radialGradient>
</defs>
</svg>
